<?xml version="1.0" encoding="utf-8"?>
<!-- Generator: Adobe Illustrator 23.0.5, SVG Export Plug-In . SVG Version: 6.00 Build 0)  -->
<svg version="1.1" id="Layer_1" xmlns="http://www.w3.org/2000/svg" xmlns:xlink="http://www.w3.org/1999/xlink" x="0px" y="0px"
	 viewBox="0 0 612 634" style="enable-background:new 0 0 612 634;" xml:space="preserve">
<style type="text/css">
	.st0{fill:#FAFAFA;}
	.st1{fill:#1BAADF;}
	.st2{fill:#006DA4;}
	.st3{fill:#FCFDFD;}
	.st4{fill:#0190D3;}
	.st5{fill:#003982;}
	.st6{fill:#A5CFDF;}
	.st7{fill:#3A95BB;}
	.st8{fill:#7FB8D2;}
	.st9{fill:#61AAC8;}
</style>
<g>
	<g>
		<path class="st0" d="M612.6,634.62c-204,0-408,0-612,0c0-211.33,0-422.67,0-634c204,0,408,0,612,0
			C612.6,211.95,612.6,423.29,612.6,634.62z M205.6,497.72l0.06,0.06c-0.22-0.23-0.44-0.45-0.66-0.68c0,0,0.06,0.06,0.06,0.06
			c-0.22-0.23-0.44-0.45-0.66-0.68c0,0,0.06,0.06,0.06,0.06c-0.22-0.23-0.43-0.45-0.65-0.68l0.04,0.04
			c-0.81-0.63-1.63-1.26-2.44-1.89c0,0,0.05,0.04,0.05,0.04c-0.42-0.22-0.83-0.45-1.25-0.67c0,0,0.06,0.05,0.06,0.05
			c-1.21-0.63-2.43-1.26-3.64-1.89l0.04,0.03c-1.61-0.43-3.21-0.85-4.82-1.28l0.03,0.03c-4.59-0.96-9.19-1.68-13.79-0.04
			c-6.02,0.9-10.85,3.85-14.43,8.96c-3.52,3.72-4.61,8.37-4.81,13.37c-0.16,0.57-0.46,1.14-0.46,1.72
			c-0.03,9.92-0.02,19.84,0.01,29.75c0,0.47,0.27,0.95,0.42,1.42c0.01,0.38,0.03,0.77,0.04,1.15c-0.06,0.07-0.19,0.16-0.18,0.21
			c0.05,0.17,0.14,0.33,0.22,0.49c0.06,0.39,0.11,0.78,0.17,1.17c-0.3,4.89,1.59,9.16,3.96,13.1c7.24,12.02,22.78,13.51,33.28,8.97
			c10.28-4.44,14.77-13.46,15.15-24.54c0.38-10.92,0.23-21.87,0.05-32.81c-0.07-4.36-0.91-8.68-3.52-12.37
			c-0.2-0.23-0.4-0.46-0.59-0.68l0.06,0.06c-0.18-0.27-0.35-0.55-0.53-0.82l0.14,0.06c-0.28-0.38-0.57-0.76-0.85-1.14l0.03,0.04
			C206.03,498.17,205.82,497.94,205.6,497.72z M140.67,498.29c-0.23-0.25-0.46-0.5-0.68-0.75l0.12,0.06
			c-0.88-0.79-1.76-1.58-2.65-2.37l0.06,0.07c-0.22-0.23-0.43-0.45-0.65-0.68l0.05,0.04c-0.62-0.42-1.23-0.84-1.85-1.26
			c0,0,0.04,0.03,0.04,0.03c-0.41-0.22-0.83-0.45-1.24-0.67l0.06,0.04c-0.42-0.21-0.84-0.43-1.25-0.64l0.04,0.03
			c-5.76-3.07-11.82-2.98-17.99-1.88c-3.58,1.14-7.62,1.56-10.66,3.58c-6.16,4.1-9.18,10.51-9.55,18.15c-0.06,0.8-0.12,1.6-0.17,2.4
			c0.01,11.37,0.02,22.74,0.03,34.12c0.01,0.21,0.05,0.4,0.12,0.6c0.01,7.83,2.99,14.05,9.21,18.63c7.59,5.59,16.17,6.24,24.64,4
			c12.72-3.36,18.45-13.85,16.95-26.23c-4.34,0-8.68,0-13.12,0c-0.24,2.52-0.48,4.92-0.71,7.32c-0.28,0.79-0.56,1.58-0.83,2.36
			l0.15-0.01l-0.05-0.15c-4.81,4.97-10.42,5.64-16.59,3.3c0,0,0.06,0.04,0.06,0.04c-0.61-0.43-1.23-0.86-1.84-1.28l0.05,0.04
			c-0.2-0.2-0.4-0.41-0.61-0.61c-2.43-2.84-3.01-6.32-3.22-9.94c0-0.55-0.01-1.09-0.01-1.64c0.01-10.43,0.02-20.85,0.03-31.28
			c0.26-1.8,0.53-3.61,0.79-5.41c0,0-0.02,0.03-0.02,0.03c0.22-0.42,0.43-0.85,0.65-1.27c0,0-0.04,0.05-0.04,0.05
			c0.29-0.37,0.58-0.74,0.87-1.11c0,0-0.12,0.08-0.12,0.08c0.22-0.25,0.44-0.5,0.66-0.74c0,0-0.09,0.13-0.09,0.13
			c0.57-0.49,1.13-0.98,1.7-1.48l-0.05,0.04c0.41-0.22,0.82-0.44,1.23-0.67l-0.04,0.03c1.18-0.26,2.35-0.52,3.53-0.79
			c0.59,0,1.19,0.02,1.78,0.01c7.69-0.18,12.07,3.05,12.12,11.65c0,0.59,0.06,1.18,0.1,1.91c4.38,0,8.58,0,12.97,0
			c0-2.51-0.01-4.86,0-7.2c0.03-3.78-1.03-7.15-3.52-9.97c-0.2-0.27-0.4-0.54-0.59-0.8C140.54,498.21,140.67,498.29,140.67,498.29z
			 M326.35,528.06l0.04,0.06c-0.21-0.43-0.42-0.87-0.64-1.3l0.05,0.06c-0.22-0.43-0.43-0.86-0.65-1.3l0.05,0.06
			c-0.39-0.87-0.78-1.73-1.17-2.6l0.06,0.07c-0.23-0.43-0.46-0.86-0.68-1.3l0.06,0.07c-0.23-0.43-0.45-0.86-0.67-1.29l0.06,0.07
			c-0.22-0.44-0.44-0.87-0.66-1.31l0.05,0.06c-0.42-0.84-0.84-1.68-1.27-2.52l0.04,0.05c-0.42-0.83-0.83-1.67-1.25-2.5l0.03,0.03
			c-0.21-0.43-0.42-0.85-0.63-1.28l0.04,0.05c-0.41-0.83-0.82-1.67-1.23-2.5l0.01,0.01c-0.2-0.42-0.4-0.85-0.61-1.27l0.02,0.03
			c-0.81-1.65-1.62-3.3-2.44-4.95l0.01,0.02c-2.02-4.29-3.98-8.6-6.12-12.83c-0.33-0.65-1.47-0.86-2.23-1.28
			c-1.22,0-2.44,0-3.66-0.01c-1.16,0-2.32,0-3.48,0c-1.75,0-3.5,0-5.47,0c0,26.64,0.01,53.02-0.02,79.4c0,1.83,0.81,2.29,2.39,2.25
			c3.38-0.08,6.77-0.05,10.15-0.07c0.21-0.16,0.42-0.32,0.62-0.47c0.25-0.25,0.49-0.5,0.74-0.75c0.36-1.04,1.02-2.07,1.03-3.11
			c0.09-11.9,0.06-23.79,0.12-35.69c0-0.6,0.55-1.2,0.84-1.8c0.48,0.4,0.98,0.78,1.44,1.2c0.79,0.73,1.55,1.5,2.32,2.25
			c4.08,8.48,8.16,16.95,12.24,25.43c0.45,0.69,0.9,1.39,1.34,2.08l0-0.08c1.75,3.61,3.49,7.21,5.09,10.52c4.76,0,9.18,0,13.7,0
			c0-26.84,0-53.43-0.02-80.03c0-0.39-0.37-0.77-0.57-1.16c-4.24,0-8.48,0-13.03,0c0,16.11,0,32.03,0,47.95
			c-0.2,0.05-0.4,0.1-0.59,0.16c-0.9-1.86-1.8-3.71-2.7-5.57c-0.26-0.46-0.52-0.92-0.78-1.37l0.04,0.07c-0.48-0.8-0.96-1.6-1.44-2.4
			l0.05,0.06C326.78,528.93,326.56,528.49,326.35,528.06z M231.47,563.65c0,0,0.13,0.06,0.13,0.06c0.79,0.83,1.58,1.65,2.37,2.48
			l0.06-0.06c0.23,0.22,0.47,0.43,0.7,0.65c0,0-0.13,0-0.13,0c0.49,0.55,0.98,1.11,1.47,1.66c0.36,0.23,0.72,0.46,1.08,0.69
			c0.44,0.19,0.88,0.38,1.32,0.57c0.22,0.17,0.45,0.34,0.67,0.5c0.18-0.01,0.36,0.03,0.53,0.11c0.22,0.17,0.44,0.33,0.66,0.5
			l-0.03-0.03c0.67,1.75,1.62,2.28,3.04,0.74c0.78,0.15,1.56,0.31,2.33,0.46l-0.06,0.22c0.31,0.55,0.62,1.1,0.92,1.65
			c0.3-0.34,0.6-0.68,0.89-1.02c2.76-0.11,5.53-0.21,8.29-0.32c0.62-0.1,1.25-0.21,1.87-0.31c2.18-0.68,4.36-1.36,6.54-2.05
			c3.28,0.63,7.03-1.77,7.77-4.97c2.45-3.72,5.55-7.17,4.71-12.25c0.44-2.47,1.23-4.94,1.25-7.41c0.11-17.52,0.06-35.05,0.06-52.58
			c0-0.79,0-1.58,0-2.41c-4.92,0-9.54,0-14.34,0c0,1.29,0,2.41,0,3.53c-0.01,17.53,0.06,35.05-0.07,52.57
			c-0.03,3.81-0.16,8.16-3.83,10.3c-4.98,2.9-11.56,3.88-16.92-1.6c-0.65-2.61-1.3-5.22-1.96-7.83c-0.09-0.65-0.18-1.31-0.27-1.96
			c-0.07-1.23-0.2-2.45-0.21-3.68c-0.01-16.15,0-32.3-0.04-48.45c0-0.99-0.41-1.97-0.63-2.96c-4.51,0-9.03,0-13.66,0
			c0,19.09-0.02,37.8,0.03,56.51c0,2.1-0.04,4.36,0.65,6.26c1.26,3.49,3.06,6.76,4.63,10.13
			C231.28,563.51,231.34,563.6,231.47,563.65z M491.35,541.8c5.94-0.26,11.89-0.52,17.83-0.78c7.21-1.43,13.02-5.23,14.71-12.79
			c1.31-5.88,1.48-12.2,1.14-18.27c-0.76-13.42-9.38-17.82-17.64-18.87c-0.98-0.05-1.96-0.1-2.94-0.14
			c-2.53-0.21-5.06-0.56-7.59-0.59c-6.74-0.08-13.48-0.03-20.38-0.03c-0.06,1.06-0.14,1.76-0.14,2.46c0,25.69-0.01,51.38,0.02,77.07
			c0,0.72,0.35,1.43,0.54,2.14c1.67,0.02,3.34,0.12,5,0.05c2.96-0.13,5.92-0.36,8.89-0.55c0.16-0.96,0.45-1.93,0.45-2.89
			C491.31,559.68,491.32,550.74,491.35,541.8z M336.45,449.61c0.33,2.95,1.46,1.22,2.44,0.45c1.39,0.05,2.78,0.1,4.17,0.14
			c0.6,0.16,1.21,0.32,1.81,0.47c4.38,0.25,8.75,0.51,13.13,0.76c2.04,0.58,4.07,1.16,6.26,1.78c-0.16,0.55-0.39,1.34-0.87,2.98
			c2.14-0.68,3.71-1.05,5.17-1.68c2.14-0.92,4.16-2.75,6.3-2.87c2.48-0.14,2.99-1.01,2.67-3.07c-0.75-4.86-0.78-4.85-3.67-8.16
			c-1.61-1.85-5.35-2.7-6.58-1.46c-0.54,0.55-0.95,1.24-1.42,1.86c0-3.3,0-6.6,0.01-9.91c0.56-0.52,1.12-1.03,1.68-1.55
			c-0.56-0.52-1.12-1.03-1.68-1.55c0-0.83,0-1.65,0-2.48c0.49-0.13,0.98-0.26,1.47-0.38c0-0.16,0-0.31,0-0.47
			c-0.49-0.13-0.98-0.26-1.47-0.38c0-16.72,0-33.44,0-50.15c0.29-0.21,0.57-0.41,0.86-0.62c-0.28-0.21-0.57-0.41-0.85-0.62
			c-0.03-23.21-0.09-46.43-0.09-69.64c0-19.09,0.06-38.17,0.1-57.26c2.24-0.33,2.2,1.16,2.36,2.84c0.1,1.12,0.63,2.78,1.43,3.15
			c2.99,1.39,3.46,2.5,1.61,5.27c-0.44,0.66-1.09,1.31-1.22,2.04c-0.69,3.91-1.28,7.83-1.78,11.77c-0.07,0.57,0.48,1.22,0.74,1.84
			c0.63-0.38,1.55-0.61,1.81-1.17c0.44-0.96,0.45-2.13,0.66-3.26c1.47-0.2,2.8-0.37,3.83-0.51c1.92,1.57,0.41,5.56,4.2,5.25
			c0.04,1.13,0.13,2.26,0.13,3.39c0.01,51.1,0.01,102.2,0,153.3c0,7.21-0.1,14.42-0.15,21.62c-0.3,0.18-0.59,0.36-0.89,0.54
			c0.35,0.22,0.7,0.43,1.05,0.65c0.18-0.01,0.34,0.04,0.49,0.15c1.19,0.38,2.37,1.08,3.56,1.08c27.15,0,54.31-0.07,81.46-0.19
			c0.54,0,1.08-0.7,1.61-1.07c0.03-6.38,0.07-12.75,0.1-19.13c0.34-0.26,0.68-0.52,1.02-0.79c-0.34-0.36-0.68-0.71-1.02-1.07
			c-0.04-14.29-0.11-28.59-0.11-42.88c0-14.81,0.07-29.62,0.1-44.42c0.34-0.26,0.68-0.52,1.02-0.78c-0.34-0.36-0.68-0.71-1.02-1.07
			c0-11.15,0-22.29,0-33.44c0.34-0.26,0.68-0.52,1.02-0.79c-0.34-0.36-0.68-0.71-1.02-1.07c0-1.03,0-2.07,0-3.1
			c0.29-0.21,0.58-0.41,0.87-0.62c-0.29-0.21-0.58-0.41-0.87-0.62c-0.04-1.34-0.1-2.67-0.1-4.01c-0.01-44.31-0.02-88.62,0-132.93
			c0-10.65,0.11-21.3,0.17-31.95c0.35-0.87,0.88-1.71,1.02-2.61c0.47-2.98,0.88-5.97,1.13-8.98c0.08-1.04-0.36-2.14-0.63-3.19
			c-0.32-1.24-1.03-2.46-1.01-3.68c0.09-7.44,0.38-14.88,0.5-22.32c0.02-1.12-0.51-2.26-0.79-3.39c0.08-0.59,0.16-1.19,0.25-1.78
			c0.36-0.35,0.72-0.71,1.07-1.06c-0.35-0.27-0.7-0.53-1.04-0.8c-0.03-0.38-0.06-0.75-0.09-1.13c-0.83-0.45-1.66-1.29-2.5-1.29
			c-24.25-0.07-48.5-0.07-72.75-0.01c-0.8,0-1.6,0.7-2.4,1.08c-1.2,0-2.39-0.01-3.59-0.01c-0.41-0.53-0.83-1.54-1.24-1.53
			c-4.06,0.05-8.12,0.21-12.17,0.47c-0.73,0.05-1.42,0.69-2.13,1.05c-0.71,0.3-1.46,0.52-2.12,0.91
			c-7.82,4.54-15.64,9.08-23.42,13.68c-6.19,3.66-12.28,7.49-18.49,11.1c-7.1,4.12-14.29,8.09-21.43,12.12
			c-0.76-2.68-1.75-1.58-3.05-0.35c-1.71,1.6-3.62,2.99-5.47,4.43c-2.02,1.57-4.06,3.09-6.1,4.63
			c-20.36,11.99-40.72,23.98-61.08,35.97c-2.73,1.02-5.57,1.79-8.13,3.15c-1.5,0.8-2.54,2.52-3.78,3.83
			c-0.29-0.03-0.66-0.19-0.87-0.07c-8.94,5.48-17.84,11.02-26.79,16.47c-7.44,4.53-15.07,8.74-22.34,13.53
			c-3.26,2.15-5.67,2.29-9.01,0.24c-8.78-5.38-17.79-10.34-26.95-15.6c0,6.56,0,12.9,0,19.24c-0.21,4.51-0.6,9.01-0.6,13.52
			c-0.04,47.6-0.04,95.21,0.02,142.81c0,1.35,0.65,2.7,1,4.05c5.02,3.12,10.03,6.24,15.05,9.37c3.35,2.23,6.69,4.46,10.04,6.69
			c1.36,0.71,3.14,1.07,4.01,2.18c2.6,3.37,5.66,5.41,9.9,5.32c0.4,0.36,0.8,0.71,1.2,1.07c1.88,1.11,3.72,2.27,5.64,3.3
			c3.18,1.72,6.41,3.35,9.62,5.02c0.72,0.57,1.37,1.27,2.16,1.68c7.34,3.79,14.7,7.54,22.05,11.29c0.22,0.17,0.45,0.35,0.67,0.52
			c0.58,0.19,1.16,0.38,1.74,0.57c0.4,0.21,0.8,0.41,1.2,0.62c0.39,0.03,0.77,0.07,1.16,0.1c2.45,3.9,6.74,4.52,10.44,6.1
			c1.14,0.48,2.63,0.06,3.97,0.05c0.19,0,0.37,0.04,0.54,0.11c0.22,0.17,0.44,0.34,0.67,0.51c0.18-0.01,0.36,0.04,0.52,0.12
			c0.41,0.15,0.81,0.3,1.22,0.45c10.15,3.62,20.25,7.4,30.46,10.81c6.7,2.24,13.56,3.95,20.35,5.89c0.39,1.89,1.31,1.58,2.39,0.62
			c0.79,0.04,1.57,0.09,2.36,0.13c0.16,0.31,0.31,0.62,0.47,0.92c0.25-0.31,0.5-0.61,0.75-0.92c0,0-0.03-0.07-0.03-0.07
			c0.21-0.9,0.6-1.8,0.61-2.71c0.08-3.84,0.05-7.68,0.06-11.52c2.6-0.01,2.48,1.65,2.09,3.57c-0.75,3.79,0.75,6.62,3.88,6.76
			c-0.6,1.41-1.15,2.72-1.72,4.09c0.44,0.19,0.75,0.45,0.96,0.38c3.12-0.99,5.12-0.38,5.22,3.53c0.01,0.48,1.14,0.93,1.75,1.39
			c0.3-0.55,0.6-1.1,0.9-1.64c1.4,0.2,2.8,0.41,4.2,0.61c0.21,0.16,0.42,0.32,0.63,0.49c0.79,0.05,1.58,0.09,2.36,0.14
			c0.21,0.16,0.42,0.32,0.64,0.48c1.18,0.04,2.37,0.09,3.55,0.13c0.22,0.16,0.44,0.32,0.66,0.48c2.37,0.24,4.73,0.48,7.1,0.72
			c0.22,0.17,0.45,0.35,0.67,0.52c0.89,0.01,1.78,0.01,2.68,0.02c-0.05,0.94-0.09,1.87-0.14,2.81c0.27,0.06,0.53,0.11,0.8,0.17
			c0.47-0.81,0.93-1.62,1.4-2.43c0.99,0.06,1.97,0.11,2.96,0.17c0.19,0.51,0.39,1.02,0.58,1.53c0.41-0.36,0.83-0.72,1.24-1.08
			c1-0.01,1.99-0.01,2.99-0.02L336.45,449.61z M376.04,570.88c0.17,0.32,0.33,0.91,0.5,0.91c4.54,0.05,9.08,0.04,13.77,0.04
			c0-23.04,0-45.74,0-68.43c5.56-0.04,11.11-0.08,16.67-0.12c0.29-4.24,0.58-8.49,0.87-12.72c-16.83,0-33.07,0-49.35,0
			c0,3.63-0.04,7.03,0.03,10.43c0.02,0.77,0.45,1.52,0.68,2.29c5.53,0,11.07,0,16.71,0c0,1.51,0,2.53,0,3.55
			C375.97,528.17,376.01,549.52,376.04,570.88z M416.59,503.27c5.33,0,10.65,0,15.88,0c0,23.1,0,45.69,0,68.48
			c4.82,0,9.54,0,14.59,0c0-22.8,0-45.51,0-68.48c5.79,0,11.25,0,16.7,0c0.28-4.25,0.56-8.49,0.84-12.74c-16.65,0-32.7,0-48.95,0
			c0,4-0.03,7.8,0.04,11.59C415.71,502.51,416.28,502.89,416.59,503.27z M372.78,275.01c-0.16,0.41-0.32,0.83-0.48,1.24
			c0.84,0.32,1.68,0.64,2.52,0.97c0.11-0.26,0.22-0.52,0.32-0.79C374.35,275.95,373.57,275.48,372.78,275.01z M369.22,289.34
			c-0.31,0.04-0.62,0.09-0.92,0.13c0.07,0.64,0.14,1.29,0.21,1.93c0.33-0.05,0.66-0.1,0.99-0.14
			C369.4,290.63,369.31,289.99,369.22,289.34z M367.6,393.48c-0.26,0.9-0.48,1.29-0.46,1.66c0.02,0.32,0.3,0.62,0.47,0.94
			c0.34-0.24,0.76-0.42,0.98-0.75C368.68,395.2,368.3,394.74,367.6,393.48z M368.09,298.89c-0.45,0.35-0.65,0.51-0.84,0.66
			c0.15,0.2,0.34,0.59,0.43,0.56c0.28-0.08,0.59-0.27,0.75-0.51C368.49,299.5,368.22,299.16,368.09,298.89z M367.97,419.27
			c0.24-0.34,0.41-0.55,0.51-0.79c0.02-0.04-0.29-0.35-0.38-0.31c-0.25,0.09-0.46,0.29-0.68,0.45
			C367.57,418.79,367.72,418.97,367.97,419.27z M372.78,294.95c-0.07,0.17-0.23,0.38-0.19,0.5c0.05,0.12,0.3,0.16,0.46,0.23
			c0.07-0.17,0.23-0.37,0.19-0.49C373.19,295.07,372.94,295.03,372.78,294.95z"/>
		<path class="st1" d="M466.85,308.95c0,11.15,0,22.29,0,33.44c0,0.62,0,1.24,0,1.85c-0.04,14.81-0.1,29.62-0.1,44.42
			c0,14.29,0.07,28.59,0.11,42.88c0,0.62,0,1.24,0,1.85c-0.03,6.38-0.07,12.75-0.1,19.13c-1.29,0.03-2.59,0.09-3.88,0.1
			c-27.59,0.03-55.17,0.05-82.76,0.07c-0.15-0.11-0.31-0.16-0.49-0.15c-0.05-0.4-0.1-0.8-0.15-1.2c0.05-7.21,0.15-14.42,0.15-21.62
			c0.01-51.1,0-102.2,0-153.3c0-1.13-0.08-2.26-0.13-3.39c0-1.03,0-2.06,0-3.1c0-0.41,0-0.83,0-1.24c0-0.41,0-0.83,0-1.24
			c0-4.33,0-8.67-0.01-13c0-0.62,0.01-1.24,0.01-1.86c0-3.71-0.01-7.43-0.01-11.14c0-0.41,0-0.83,0-1.24c0-1.86,0-3.71,0-5.57
			c0.04-0.31,0.1-0.61,0.1-0.92c-0.03-36.07-0.07-72.14-0.12-108.21c0-1.44,0.06-2.9-0.15-4.32c-0.42-2.91,0.8-2.72,2.62-1.63
			c0.94,0.18,1.89,0.51,2.83,0.51c27.5,0.03,55.01,0.02,82.51,0.02c-0.12,4.59-0.24,9.18-0.36,13.76
			c-0.06,10.65-0.16,21.3-0.17,31.95c-0.02,44.31,0,88.62,0,132.93c0,1.34,0.07,2.67,0.1,4.01c0,0.41,0,0.82,0,1.23
			c0,1.03,0,2.07,0,3.1C466.85,307.71,466.85,308.33,466.85,308.95z"/>
		<path class="st2" d="M308.41,445.27c-1.4-0.2-2.8-0.41-4.2-0.61c0-2.64-0.01-5.27-0.01-7.91c0-69.33,0.05-138.66-0.03-207.99
			c-0.02-22.24-0.33-44.48-0.65-66.72c-0.03-2.47,0.7-3.9,2.69-5.08c4.48-2.65,8.85-5.5,13.32-8.16c9.65-5.76,19.31-11.5,29-17.17
			c5.56-3.26,11.2-6.37,17.12-9.73c0,2.2,0,3.63,0,5.06c-0.16,1.09-0.45,2.18-0.45,3.28c-0.02,103.89-0.02,207.78,0,311.67
			c0,1.09,0.31,2.18,0.48,3.27c0,2.01,0,4.02,0,6.26c-2.76,0-5.22,0-7.68,0c-4.38-0.25-8.75-0.51-13.13-0.76
			c-0.6-0.16-1.21-0.32-1.81-0.47c-1.39-0.05-2.78-0.1-4.17-0.14c-0.81-0.15-1.62-0.3-2.44-0.45c0,0,0.06-0.21,0.06-0.21
			c-0.4-0.37-0.77-0.99-1.22-1.06c-5.56-0.88-11.13-1.72-16.71-2.46c-0.79-0.1-1.65,0.37-2.47,0.57c-0.18-0.05-0.36-0.02-0.53,0.06
			c-1.18-0.04-2.37-0.09-3.55-0.13c-0.21-0.16-0.42-0.32-0.64-0.48c-0.79-0.05-1.58-0.09-2.36-0.14
			C308.82,445.59,308.61,445.43,308.41,445.27z"/>
		<path class="st3" d="M365.65,126.97c0-1.43,0-2.86,0-5.06c-5.93,3.36-11.56,6.48-17.12,9.73c-9.69,5.67-19.35,11.41-29,17.17
			c-4.47,2.67-8.84,5.52-13.32,8.16c-1.99,1.17-2.73,2.61-2.69,5.08c0.31,22.24,0.62,44.48,0.65,66.72
			c0.08,69.33,0.03,138.66,0.03,207.99c0,2.64,0.01,5.27,0.01,7.91c-0.3,0.55-0.6,1.1-0.9,1.64c-0.61-0.46-1.74-0.91-1.75-1.39
			c-0.1-3.91-2.1-4.52-5.22-3.53c-0.21,0.07-0.52-0.2-0.96-0.38c0.58-1.37,1.13-2.68,1.72-4.09c-3.12-0.14-4.63-2.97-3.88-6.76
			c0.38-1.92,0.51-3.58-2.09-3.57c0.12-3.8,0.36-7.59,0.36-11.39c0.04-50.06,0.04-100.11,0.06-150.17c0-0.44,0-0.87,0-1.31
			c0-18.56-0.01-37.13-0.01-55.69c2.12-1.23,2.12-2.47,0-3.7c-0.03-1.01-0.06-2.03-0.1-3.04c0.47-0.59,0.93-1.18,1.4-1.77
			c-0.57-0.46-1.14-0.93-1.71-1.39c0-1.44,0-2.89,0-4.33c0.58-0.62,1.67-1.29,1.62-1.85c-0.1-1.09-0.83-2.11-1.31-3.17
			c0.02-4.84,0.16-9.69,0.01-14.52c-0.08-2.57-0.64-5.13-0.99-7.69c-0.55,0.34-1.11,0.68-1.66,1.02c-0.63,0.29-1.29,0.53-1.89,0.88
			c-18.39,10.73-36.76,21.49-55.19,32.15c-1.73,1-1.61,2.29-1.61,3.83c0.02,55.18,0.02,110.35,0.04,165.53
			c0.01,17.01,0.06,34.03,0.08,51.04c0.18,0.4,0.36,0.8,0.53,1.21c-1.33,0.01-2.83,0.43-3.97-0.05c-3.71-1.57-7.99-2.19-10.44-6.1
			c0.16-0.6,0.31-1.19,0.47-1.79c0.05-1.03,0.13-2.05,0.13-3.08c0.01-66.39,0.01-132.77,0.01-199.16c0-0.67,0-1.35,0-2.52
			c-1.49,0.83-2.57,1.46-3.66,2.04c-2.98,1.57-5.98,3.12-8.97,4.68c-1.44,0.85-2.88,1.7-4.32,2.56l-0.08,0
			c-0.37,0.25-0.75,0.5-1.12,0.75l0.05-0.06c-0.79,0.48-1.57,0.97-2.36,1.45l0.07-0.07c-0.65,0.4-1.29,0.79-1.94,1.19l0.09-0.07
			c-0.8,0.48-1.6,0.96-2.39,1.44l0.07-0.07c-1.42,0.85-2.83,1.69-4.25,2.54l0.05-0.05c-1.4,0.85-2.81,1.7-4.21,2.55l0.04-0.04
			c-0.64,0.4-1.29,0.79-1.93,1.19l0.1-0.08c-0.41,0.26-0.82,0.52-1.23,0.78l0.07-0.06c-1.02,0.63-2.04,1.27-3.06,1.9l0.05-0.05
			c-0.26,0.18-0.52,0.36-0.78,0.54c0,0,0.01-0.11,0.01-0.11c-1.15,0.71-2.29,1.42-3.44,2.13l0.04-0.03
			c-2.76,0.84-3.8,2.51-3.48,5.66c0.47,4.6,0.5,9.25,0.51,13.89c0.12,43.57,0.2,87.14,0.28,130.71c0,2.36-0.19,4.72-0.29,7.08
			c-4.24,0.09-7.3-1.96-9.9-5.32c-0.86-1.12-2.64-1.48-4.01-2.18c0.06-2.88,0.11-5.75,0.17-8.63c0.16-0.35,0.46-0.71,0.46-1.06
			c0.03-12.02,0.03-24.05,0.04-36.07c0.1-34.11,0.18-68.22,0.34-102.33c0.01-2.1-1.09-2.6-2.61-2.97l0.05,0.04
			c-0.41-0.23-0.83-0.46-1.24-0.69l0.07,0.06c-0.42-0.23-0.83-0.46-1.25-0.69l0.06,0.05c-0.55-0.3-1.1-0.61-1.65-0.91
			c0,0-0.03,0.12-0.03,0.12c-0.25-0.18-0.51-0.36-0.76-0.54c0,0,0.09,0.1,0.09,0.1c-0.23-0.15-0.45-0.31-0.68-0.46
			c-0.38-0.08-0.79-0.07-1.13-0.24c-5.2-2.65-10.39-5.32-15.59-7.99c-0.33-0.37-0.66-0.73-1.31-1.46c0,1.19,0,1.79,0,2.39
			c0,47.71,0,95.42,0,143.13c0,0.72,0.08,1.43,0.13,2.15l-0.11-0.11l-0.14,0.05c-0.35-1.35-0.99-2.7-1-4.05
			c-0.05-47.6-0.06-95.21-0.02-142.81c0-4.51,0.39-9.02,0.6-13.52c2.18,1.15,4.41,2.21,6.53,3.48c7.72,4.61,15.44,9.23,23.07,13.99
			c1.8,1.12,2.98,1.01,4.69-0.25c3.71-2.72,7.58-5.24,11.53-7.59c12.45-7.42,24.98-14.68,37.41-22.12c0.98-0.59,2.05-2.01,2.11-3.11
			c0.37-6.06,0.43-12.14,0.6-18.21c1.25-1.31,2.28-3.04,3.78-3.83c2.56-1.36,5.41-2.13,8.13-3.15c0.29,6.35,0.57,12.7,0.88,19.38
			c11.03-6.48,21.63-12.69,32.2-18.94c8.78-5.18,17.51-10.46,26.32-15.59c1.82-1.06,2.41-2.33,2.34-4.43
			c-0.16-4.53-0.03-9.07-0.1-13.6c-0.01-0.94-0.37-1.87-0.56-2.8c2.03-1.54,4.08-3.07,6.1-4.63c1.85-1.44,3.76-2.82,5.47-4.43
			c1.3-1.22,2.3-2.33,3.05,0.35c-0.5,0.66-1.42,1.33-1.42,1.99c0,5.96,0.16,11.93,0.29,18.41c1.6-0.89,2.46-1.35,3.31-1.84
			c19.78-11.54,39.54-23.08,59.34-34.58c1.08-0.63,2.36-1.16,3.57-1.22c5.86-0.29,11.73-0.55,17.6-0.57
			c25.19-0.06,50.37-0.02,75.56-0.02c1.07,0,2.13,0,3.81,0c0-5.17,0-10.06,0-14.95c0.28,1.13,0.81,2.26,0.79,3.39
			c-0.12,7.44-0.41,14.88-0.5,22.32c-0.02,1.22,0.7,2.44,1.01,3.68c0.27,1.05,0.71,2.15,0.63,3.19c-0.24,3.01-0.66,6-1.13,8.98
			c-0.14,0.9-0.67,1.75-1.02,2.61c0.12-4.59,0.24-9.18,0.36-13.76c-0.55-0.26-1.09-0.74-1.64-0.74c-27.9,0.05-55.8,0.13-83.71,0.22
			c-1.82-1.09-3.04-1.28-2.62,1.63c0.21,1.42,0.15,2.88,0.15,4.32c0.05,36.07,0.08,72.14,0.12,108.21c0,0.31-0.07,0.61-0.1,0.92
			c-2.01-0.14-1.8,1.34-1.75,2.64c0.05,1.29-0.52,3.04,1.75,2.94c0,0.41,0,0.83,0,1.24c-0.59,0.6-1.58,1.12-1.68,1.8
			c-0.31,2.04,0.2,4.34-0.5,6.18c-1.06,2.78-0.15,3.3,2.19,3.16c0,0.62-0.01,1.24-0.01,1.86c-1.53,0.73-3.05,1.47-5.08,2.44
			c2.43,0.99,3.43,2.26,2.3,4.39c-2.46,4.67-2.16,5.33,2.78,6.17c0,0.41,0,0.83,0,1.24c-0.51,0.13-1.02,0.25-1.53,0.38
			c0,0.16,0,0.32,0,0.48c0.51,0.13,1.02,0.25,1.53,0.38c0,1.03,0,2.06,0,3.1c-3.79,0.31-2.28-3.68-4.2-5.25
			c-1.03,0.14-2.36,0.32-3.83,0.51c-0.2,1.13-0.22,2.3-0.66,3.26c-0.26,0.56-1.18,0.79-1.81,1.17c-0.26-0.61-0.82-1.27-0.74-1.84
			c0.51-3.94,1.1-7.86,1.78-11.77c0.13-0.73,0.78-1.38,1.22-2.04c1.85-2.77,1.38-3.88-1.61-5.27c-0.79-0.37-1.32-2.03-1.43-3.15
			c-0.16-1.68-0.12-3.17-2.36-2.84c0-0.93,0-1.86,0-2.79c0.71,0,1.43,0,2.14,0c0.01-0.39,0.02-0.78,0.03-1.17
			c-0.72-0.04-1.44-0.08-2.16-0.12c0-1.24,0-2.48,0-3.72c0.64,0,1.27,0,1.91,0c-0.02-0.24-0.04-0.47-0.05-0.71
			c-0.62,0.05-1.24,0.09-1.86,0.14c-0.03-14.13-0.07-28.27-0.1-42.4C365.73,172.36,365.69,149.66,365.65,126.97z"/>
		<path class="st2" d="M204.33,216.26c2.99-1.56,5.98-3.11,8.97-4.68c1.1-0.58,2.17-1.21,3.66-2.04c0,1.17,0,1.84,0,2.52
			c0,66.39,0,132.77-0.01,199.16c0,1.03-0.09,2.05-0.13,3.08c-1.48-0.3-3.1-0.29-4.43-0.94c-7.36-3.58-14.65-7.34-21.98-10.99
			c-0.95-0.48-2.02-0.71-3.04-1.05c-3.21-1.67-6.43-3.3-9.62-5.02c-1.91-1.03-3.76-2.2-5.64-3.3c-0.2-50.25-0.38-100.49-0.64-150.74
			c-0.01-2.93-0.02-5.66,2.42-7.67c0,0-0.04,0.03-0.04,0.03c1.15-0.71,2.29-1.42,3.44-2.13c0,0-0.01,0.11-0.01,0.11
			c0.26-0.18,0.52-0.36,0.77-0.54c0,0-0.05,0.05-0.05,0.05c1.02-0.63,2.04-1.27,3.06-1.9c0,0-0.07,0.06-0.07,0.06
			c0.41-0.26,0.82-0.52,1.23-0.78c0,0-0.1,0.08-0.1,0.08c0.64-0.4,1.29-0.79,1.93-1.19c0,0-0.04,0.04-0.04,0.04
			c1.4-0.85,2.81-1.7,4.21-2.55c0,0-0.05,0.05-0.05,0.05c1.42-0.85,2.83-1.69,4.25-2.54c0,0-0.07,0.07-0.07,0.07
			c0.8-0.48,1.6-0.96,2.39-1.44c0,0-0.09,0.07-0.09,0.07c0.65-0.4,1.29-0.79,1.94-1.19c0,0-0.07,0.07-0.07,0.07
			c0.79-0.48,1.57-0.97,2.36-1.45c0,0-0.05,0.06-0.05,0.06c0.37-0.25,0.75-0.5,1.12-0.75c0,0,0.08,0,0.08,0
			C201.45,217.97,202.89,217.11,204.33,216.26z"/>
		<path class="st2" d="M157.68,338.65c-0.01,12.02-0.01,24.05-0.04,36.07c0,0.35-0.3,0.71-0.46,1.06c0-3.47,0-6.93,0-10.4
			c-0.26,0-0.51,0-0.77-0.01c0,5.68,0,11.36,0,17.36c-1.64-0.95-2.74-1.64-3.88-2.23c-1.84-0.96-3.71-1.86-5.56-2.79
			c-5.02-3.12-10.03-6.24-15.05-9.37c0,0,0.14-0.05,0.14-0.05s0.11,0.11,0.11,0.11c0.17-1.29,0.48-2.59,0.48-3.88
			c0.03-46.18,0.02-92.37,0.05-138.55c0-1.26,0.42-2.52,0.65-3.79c5.19,2.67,10.38,5.34,15.59,7.99c0.33,0.17,0.75,0.16,1.13,0.24
			c0.23,0.15,0.45,0.31,0.68,0.46c0,0-0.09-0.1-0.09-0.1c0.25,0.18,0.51,0.36,0.76,0.54c0,0,0.03-0.12,0.03-0.12
			c0.55,0.3,1.1,0.61,1.65,0.91c0,0-0.06-0.05-0.06-0.05c0.42,0.23,0.83,0.46,1.25,0.69c0,0-0.07-0.06-0.07-0.06
			c0.41,0.23,0.83,0.46,1.24,0.69c0,0-0.05-0.04-0.05-0.04c1.59,1.35,1.83,3.1,1.83,5.16c-0.06,32.19-0.04,64.38-0.02,96.56
			C157.22,336.26,157.52,337.45,157.68,338.65z"/>
		<path class="st4" d="M467.14,89.7c0,4.89,0,9.78,0,14.95c-1.67,0-2.74,0-3.81,0c-25.19,0-50.37-0.03-75.56,0.02
			c-5.87,0.01-11.74,0.27-17.6,0.57c-1.21,0.06-2.49,0.59-3.57,1.22c-19.79,11.5-39.56,23.05-59.34,34.58
			c-0.84,0.49-1.71,0.95-3.31,1.84c-0.13-6.48-0.29-12.45-0.29-18.41c0-0.66,0.92-1.33,1.42-1.99c7.15-4.03,14.34-7.99,21.43-12.12
			c6.21-3.61,12.31-7.44,18.49-11.1c7.78-4.6,15.61-9.14,23.42-13.68c0.66-0.38,1.41-0.61,2.12-0.91c5.18,0,10.36,0.01,15.53,0.01
			c1.2,0,2.39,0.01,3.59,0.01c10.75,0.03,21.5,0.07,32.25,0.1c15.13,0.04,30.26,0.08,45.4,0.12c0.03,0.38,0.06,0.75,0.09,1.13
			c-0.01,0.62-0.02,1.24-0.03,1.85C467.3,88.51,467.22,89.1,467.14,89.7z"/>
		<path class="st2" d="M307.91,570.84c-0.25,0.25-0.49,0.5-0.74,0.75c-0.21,0.16-0.42,0.32-0.62,0.47
			c-3.38,0.02-6.77-0.01-10.15,0.07c-1.58,0.04-2.39-0.42-2.39-2.25c0.03-26.38,0.02-52.76,0.02-79.4c1.97,0,3.72,0,5.47,0
			c1.4,0.36,2.83,1.11,4.2,1c3.1-0.27,4.87,0.78,6.13,3.89c1.32,3.25,3.41,6.17,5.16,9.23c0,0-0.01-0.02-0.01-0.02
			c0.81,1.65,1.62,3.3,2.44,4.95c0,0-0.02-0.03-0.02-0.03c0.2,0.42,0.4,0.85,0.61,1.27c0,0-0.01-0.01-0.01-0.01
			c0.41,0.83,0.82,1.67,1.23,2.5c0,0-0.04-0.05-0.04-0.05c0.21,0.43,0.42,0.85,0.63,1.28c0,0-0.03-0.03-0.03-0.03
			c0.42,0.83,0.83,1.67,1.25,2.5c0,0-0.04-0.05-0.04-0.05c0.42,0.84,0.84,1.68,1.27,2.52c0,0-0.05-0.06-0.05-0.06
			c0.22,0.44,0.44,0.87,0.66,1.31c0,0-0.06-0.07-0.06-0.07c0.22,0.43,0.45,0.86,0.68,1.29c0,0-0.06-0.07-0.06-0.07
			c0.23,0.43,0.46,0.86,0.68,1.3c0,0-0.06-0.07-0.06-0.07c0.39,0.87,0.78,1.73,1.17,2.6c0,0-0.05-0.06-0.05-0.06
			c0.22,0.43,0.43,0.86,0.65,1.3c0,0-0.05-0.06-0.05-0.06c0.21,0.43,0.42,0.87,0.64,1.3c0,0-0.04-0.06-0.04-0.06
			c0.22,0.43,0.43,0.86,0.65,1.29c0,0-0.05-0.06-0.05-0.06c0.48,0.8,0.96,1.6,1.44,2.4c0,0-0.04-0.07-0.04-0.07
			c0.26,0.46,0.52,0.92,0.78,1.37c0.9,1.86,1.8,3.71,2.7,5.57c0.2-0.05,0.4-0.1,0.59-0.16c0-15.92,0-31.84,0-47.95
			c4.55,0,8.79,0,13.03,0c0,26.67,0,53.35,0,80.41c-3.03,0-5.71-0.22-8.34,0.06c-3.13,0.33-4.93-0.77-6.13-3.84
			c-0.84-2.15-2.46-3.98-3.73-5.96c0,0,0,0.08,0,0.08c-0.26-0.92-0.52-1.84-0.78-2.76c-0.19,0.23-0.37,0.45-0.56,0.68
			c-4.08-8.48-8.16-16.95-12.24-25.43c-1.72-3.51-3.45-7.03-5.17-10.54c-0.2,0.12-0.39,0.24-0.59,0.36
			C307.91,539.29,307.91,555.07,307.91,570.84z"/>
		<path class="st2" d="M207.99,500.88c2.6,3.69,3.44,8.01,3.52,12.37c0.18,10.93,0.33,21.88-0.05,32.81
			c-0.38,11.08-4.86,20.09-15.15,24.54c-10.5,4.54-26.04,3.05-33.28-8.97c-2.37-3.94-4.26-8.21-3.96-13.1
			c0.16-1.09,0.46-2.17,0.46-3.26c0.04-10.5,0-20.99,0.05-31.49c0.01-1.52,0.13-3.11,0.57-4.53c1.05-3.37,2.33-6.67,3.52-10
			c3.58-5.11,8.42-8.06,14.43-8.96c4.6,0.01,9.19,0.03,13.79,0.04c0,0-0.03-0.03-0.03-0.03c1.61,0.43,3.21,0.85,4.82,1.28
			c0,0-0.04-0.03-0.04-0.03c1.21,0.63,2.43,1.26,3.64,1.89c0,0-0.06-0.05-0.06-0.05c0.42,0.22,0.83,0.45,1.25,0.67
			c0,0-0.05-0.04-0.05-0.04c0.81,0.63,1.63,1.26,2.44,1.89c0,0-0.04-0.04-0.04-0.04c0.22,0.23,0.43,0.45,0.65,0.68
			c0,0-0.06-0.06-0.06-0.06c0.22,0.23,0.44,0.45,0.66,0.68c0,0-0.06-0.06-0.06-0.06c0.22,0.23,0.44,0.45,0.66,0.68
			c0,0-0.06-0.06-0.06-0.06c0.21,0.22,0.43,0.45,0.64,0.67c0,0-0.03-0.04-0.03-0.04c0.28,0.38,0.57,0.76,0.85,1.14
			c0,0-0.14-0.06-0.14-0.06c0.18,0.27,0.35,0.55,0.53,0.82c0,0-0.06-0.06-0.06-0.06C207.59,500.42,207.79,500.65,207.99,500.88z
			 M173.19,530.6c0.05,0,0.1,0,0.15,0c0,5.77-0.12,11.55,0.03,17.32c0.14,5.32,2.95,9.19,7.25,10.53
			c9.16,2.86,16.47-2.59,16.57-12.53c0.11-10.52,0.07-21.03,0.01-31.55c-0.03-6.07-2.87-9.85-8.58-11.21
			c-7.99-1.9-15.6,1.79-15.45,11.66C173.25,520.09,173.19,525.35,173.19,530.6z"/>
		<path class="st2" d="M231.31,563.36c-1.57-3.36-3.37-6.64-4.63-10.13c-0.69-1.91-0.65-4.16-0.65-6.26
			c-0.04-18.71-0.03-37.43-0.03-56.51c4.63,0,9.14,0,13.66,0c0.01,18.76-0.02,37.52,0.05,56.28c0.01,3.16,0.32,6.38,3.04,8.59
			c5.36,5.48,11.94,4.51,16.92,1.6c3.67-2.14,3.8-6.49,3.83-10.3c0.13-17.52,0.07-35.05,0.07-52.57c0-1.12,0-2.23,0-3.53
			c4.8,0,9.42,0,14.34,0c0,0.83,0,1.62,0,2.41c0,17.53,0.05,35.05-0.06,52.58c-0.02,2.47-0.81,4.94-1.25,7.41
			c-1.66,3.5-3.32,7.01-4.99,10.51c-0.37,0.77-0.76,1.54-1.15,2.3l-0.06,0c-0.32,0.01-0.64,0.02-0.96,0.03
			c0.02,0.24,0.04,0.47,0.06,0.71c-1.8,1.22-3.59,2.44-5.39,3.67c-2.18,0.68-4.36,1.36-6.54,2.05c-0.62,0.1-1.25,0.21-1.87,0.31
			c-2.76,0.11-5.53,0.21-8.29,0.32c-0.61-0.21-1.21-0.42-1.82-0.63l0.06-0.22c-3.69-1.73-7.37-3.47-11.06-5.2c0,0,0.13,0,0.13-0.01
			c-0.23-0.22-0.47-0.43-0.7-0.65c0,0-0.06,0.06-0.06,0.06c-0.79-0.83-1.58-1.65-2.37-2.47c0,0-0.13-0.06-0.13-0.06
			c0.08-0.14,0.16-0.27,0.23-0.41C231.58,563.28,231.44,563.32,231.31,563.36z"/>
		<path class="st2" d="M507.39,491.09c8.26,1.05,16.88,5.45,17.64,18.87c0.34,6.07,0.17,12.39-1.14,18.27
			c-1.69,7.56-7.5,11.36-14.71,12.79c-0.94-0.16-1.88-0.48-2.82-0.45c-4.5,0.14-9,0.35-13.5,0.6c-0.73,0.04-1.45,0.39-2.17,0.6
			l0.01,0c-0.2,1.07-0.57,2.14-0.57,3.21c-0.05,7.73,0.03,15.47-0.09,23.2c-0.01,0.9-0.93,2.51-1.5,2.55
			c-3.54,0.24-7.1,0.12-10.78,0.12c-0.11-0.95-0.24-1.54-0.24-2.13c-0.01-24.85,0.01-49.7-0.05-74.56c0-2.04,0.65-2.66,2.58-2.63
			c8.06,0.09,16.13,0.06,24.19,0.02C505.29,491.55,506.34,491.25,507.39,491.09z M506.67,504.08l0.09,0.09
			c-0.57-0.11-1.14-0.21-1.71-0.32c-4.61,0-9.21,0-13.82,0c0,8.3,0,16.37,0,24.61c4.2,0,8.28,0.32,12.27-0.13
			c2.11-0.24,4.09-1.8,6.12-2.76c0.22-0.43,0.45-0.86,0.67-1.3c0,0-0.07,0.1-0.07,0.1c0.43-0.65,1.21-1.3,1.22-1.97
			c0.06-4.42,0.16-8.87-0.21-13.26c-0.16-1.87-0.69-4.22-3.34-4.46l0.07,0.06C507.53,504.52,507.1,504.3,506.67,504.08z
			 M490.23,527.31c0.08,0.02,0.17,0.04,0.25,0.06c0-7.57,0-15.14,0-22.71c-0.08,0-0.17,0-0.25,0
			C490.23,512.21,490.23,519.76,490.23,527.31z M491.52,502.83c-0.04,0.09-0.09,0.17-0.13,0.26c4.07,0,8.14,0,12.21,0
			c0-0.09,0-0.17-0.01-0.26C499.57,502.83,495.54,502.83,491.52,502.83z"/>
		<path class="st2" d="M108.59,546.65c0.21,3.61,0.78,7.1,3.22,9.94c0.2,0.2,0.4,0.41,0.61,0.61c0,0-0.05-0.04-0.05-0.04
			c0.61,0.43,1.23,0.86,1.84,1.28c0,0-0.06-0.04-0.06-0.04c3.81,2.78,10.16,2.82,14.15-0.11c1.03-0.75,1.64-2.11,2.44-3.19
			l0.05,0.15c0,0-0.15,0.01-0.15,0.01c0.28-0.79,0.56-1.58,0.83-2.36c0.23-2.4,0.46-4.8,0.71-7.32c4.44,0,8.78,0,13.12,0
			c1.51,12.38-4.23,22.86-16.95,26.23c-8.48,2.24-17.05,1.6-24.64-4c-6.22-4.58-9.19-10.8-9.21-18.63c0.17-0.78,0.48-1.55,0.48-2.33
			c0.03-10.82,0.03-21.63,0-32.45c0-0.78-0.3-1.56-0.46-2.34c0.37-7.64,3.39-14.05,9.55-18.15c3.04-2.02,7.07-2.44,10.66-3.58
			c5.99,0.63,11.99,1.25,17.99,1.88c0,0-0.04-0.03-0.04-0.03c0.42,0.21,0.84,0.43,1.25,0.64c0,0-0.06-0.04-0.06-0.04
			c0.41,0.22,0.83,0.45,1.24,0.67c0,0-0.04-0.03-0.04-0.03c0.62,0.42,1.23,0.84,1.85,1.26c0,0-0.05-0.04-0.05-0.04
			c0.22,0.23,0.43,0.45,0.65,0.68c0,0-0.06-0.07-0.06-0.07c0.88,0.79,1.76,1.58,2.65,2.37c0,0-0.12-0.06-0.12-0.06
			c0.23,0.25,0.46,0.5,0.68,0.75c0,0-0.13-0.08-0.13-0.08c0.2,0.27,0.4,0.54,0.59,0.8c2.49,2.82,3.55,6.19,3.52,9.97
			c-0.02,2.35,0,4.69,0,7.2c-4.39,0-8.59,0-12.97,0c-0.04-0.73-0.09-1.32-0.1-1.91c-0.05-8.59-4.43-11.83-12.12-11.65
			c-0.59,0.01-1.19,0-1.78-0.01c-1.18,0.26-2.35,0.52-3.53,0.79c0,0,0.04-0.03,0.04-0.03c-0.41,0.22-0.82,0.44-1.23,0.67
			c0,0,0.05-0.04,0.05-0.04c-0.57,0.49-1.13,0.98-1.7,1.48c0,0,0.09-0.13,0.08-0.13c-0.22,0.25-0.44,0.5-0.66,0.74
			c0,0,0.12-0.08,0.11-0.08c-0.29,0.37-0.58,0.74-0.86,1.11c0,0,0.04-0.05,0.04-0.05c-0.22,0.42-0.43,0.85-0.65,1.27
			c0,0,0.02-0.03,0.02-0.03c-0.6,1.8-1.68,3.59-1.71,5.39c-0.17,10.61-0.09,21.23-0.04,31.84
			C107.65,545.93,108.26,546.29,108.59,546.65z"/>
		<path class="st4" d="M217.47,174.15c-0.17,6.07-0.24,12.15-0.6,18.21c-0.07,1.1-1.13,2.52-2.11,3.11
			c-12.44,7.44-24.97,14.7-37.41,22.12c-3.95,2.35-7.82,4.87-11.53,7.59c-1.71,1.25-2.9,1.37-4.69,0.25
			c-7.64-4.76-15.35-9.38-23.07-13.99c-2.12-1.26-4.35-2.32-6.53-3.48c0-6.34,0-12.68,0-19.24c9.15,5.26,18.17,10.22,26.95,15.6
			c3.34,2.04,5.75,1.9,9.01-0.24c7.27-4.79,14.9-9,22.34-13.53c8.95-5.45,17.85-10.99,26.79-16.47
			C216.81,173.96,217.18,174.13,217.47,174.15z"/>
		<path class="st2" d="M463.77,503.27c-5.46,0-10.92,0-16.7,0c0,22.98,0,45.69,0,68.48c-5.05,0-9.77,0-14.59,0
			c0-22.79,0-45.38,0-68.48c-5.23,0-10.56,0-15.89,0c-0.01-3.3,0.02-6.6-0.06-9.9c-0.04-1.63,0.35-2.44,2.15-2.44
			c14.33,0.05,28.66,0.05,42.99,0c1.78-0.01,2.19,0.8,2.15,2.44C463.74,496.67,463.78,499.97,463.77,503.27z"/>
		<path class="st2" d="M406.98,503.27c-5.56,0.04-11.11,0.08-16.67,0.12c-0.21,1.16-0.6,2.33-0.6,3.49
			c-0.04,20.28-0.06,40.56,0.02,60.85c0.01,2.33-0.47,3.35-2.95,3.2c-3.57-0.22-7.15-0.05-10.73-0.05
			c-0.04-21.35-0.07-42.7-0.11-64.05c0-1.02,0-2.04,0-3.55c-5.64,0-11.18,0-16.71,0c-0.01-3.3,0.02-6.6-0.06-9.9
			c-0.04-1.63,0.36-2.45,2.14-2.44c14.53,0.05,29.06,0.05,43.59,0.01c1.78-0.01,2.19,0.8,2.15,2.44
			C406.95,496.67,406.99,499.97,406.98,503.27z"/>
		<path class="st4" d="M290.46,131.2c0.2,0.93,0.55,1.86,0.56,2.8c0.07,4.53-0.06,9.07,0.1,13.6c0.07,2.1-0.52,3.37-2.34,4.43
			c-8.81,5.12-17.54,10.4-26.32,15.59c-10.58,6.25-21.18,12.46-32.2,18.94c-0.3-6.68-0.59-13.03-0.88-19.38
			C249.74,155.18,270.1,143.19,290.46,131.2z"/>
		<path class="st5" d="M230.76,422.23c-0.18-0.4-0.36-0.8-0.53-1.21c0.17-1.29,0.48-2.59,0.48-3.88
			c0.02-69.85,0.02-139.71,0.02-209.56c0-1.05,0-2.09,0-3.14c0.18,0,0.35,0,0.53,0.01c0,1.01,0,2.03,0,3.04c0,24.66,0,49.32,0,73.98
			c0,45.4,0,90.8-0.02,136.2c0,1.91-0.07,3.57,2.17,4.47c15.85,6.31,31.95,11.81,48.43,16.04c2.52,0.65,5.1,1.01,8.02,1.58
			c0-1.73,0-2.85,0-3.97c0-31.26,0-62.53,0-93.79c0-56.85,0.01-113.7-0.04-170.56c0-1.28-0.67-2.57-1.03-3.85
			c0.55-0.34,1.11-0.68,1.66-1.02c0,1.96,0,3.92,0,5.87c0,62.22,0.01,124.45,0.01,186.67c0,27.24-0.01,54.47-0.01,81.71
			c0,0,0.03,0.07,0.03,0.07c-0.41,0-0.81,0-1.22,0c-0.79-0.04-1.57-0.09-2.36-0.13c-0.8-0.21-1.59-0.41-2.39-0.62
			c-6.79-1.95-13.65-3.66-20.35-5.89c-10.21-3.41-20.31-7.19-30.46-10.81c-0.41-0.15-0.81-0.3-1.22-0.45
			c-0.16-0.09-0.34-0.13-0.52-0.12c-0.22-0.17-0.44-0.34-0.67-0.51C231.13,422.27,230.95,422.23,230.76,422.23z"/>
		<path class="st6" d="M290.45,440.82c0-27.24,0.01-54.47,0.01-81.71c0-62.22,0-124.45-0.01-186.67c0-1.96,0-3.92,0-5.87
			c0.35,2.56,0.91,5.12,0.99,7.69c0.14,4.84,0.01,9.68-0.01,14.52c-0.1,1.67-0.21,3.34-0.31,5.01c0,1.44,0,2.89,0,4.33
			c0.1,1.05,0.21,2.11,0.31,3.16c0.03,1.01,0.06,2.03,0.1,3.04c0,1.23,0,2.47,0,3.7c0,18.56,0.01,37.13,0.01,55.69
			c0,0.44,0,0.87,0,1.31c-0.01,50.06-0.02,100.11-0.06,150.17c0,3.8-0.23,7.59-0.36,11.39c-0.01,3.84,0.02,7.68-0.06,11.52
			C291.05,439.02,290.67,439.91,290.45,440.82z"/>
		<path class="st5" d="M365.87,238.03c0,1.24,0,2.48,0,3.72c0,0.43,0,0.86,0,1.28c0,0.93,0,1.86,0,2.79
			c-0.04,19.09-0.1,38.17-0.1,57.26c0,23.21,0.06,46.43,0.09,69.64c0,0.41,0,0.82,0,1.24c0,16.72,0,33.44,0,50.15
			c0,0.41,0,0.82,0,1.24c0,0.83,0,1.65,0,2.48c0,1.03,0,2.06,0,3.09c0,3.3,0,6.6-0.01,9.91c-0.06,1.45-0.12,2.9-0.19,4.36
			c-0.17-1.09-0.48-2.18-0.48-3.27c-0.02-103.89-0.02-207.78,0-311.67c0-1.09,0.29-2.18,0.45-3.28c0.04,22.7,0.07,45.4,0.12,68.09
			c0.03,14.13,0.07,28.27,0.1,42.4C365.84,237.65,365.84,237.84,365.87,238.03z"/>
		<path class="st5" d="M173.89,234.58c-2.44,2.01-2.44,4.73-2.42,7.67c0.26,50.25,0.44,100.49,0.64,150.74
			c-0.4-0.36-0.8-0.71-1.2-1.07c0.1-2.36,0.29-4.72,0.29-7.08c-0.07-43.57-0.15-87.14-0.28-130.71c-0.01-4.63-0.04-9.29-0.51-13.89
			C170.09,237.1,171.14,235.42,173.89,234.58z"/>
		<path class="st3" d="M365.68,445.18c0.06-1.45,0.12-2.9,0.19-4.36c0.47-0.63,0.88-1.31,1.42-1.86c1.22-1.24,4.96-0.38,6.58,1.46
			c2.89,3.31,2.93,3.3,3.67,8.16c0.32,2.07-0.19,2.93-2.67,3.07c-2.14,0.12-4.16,1.95-6.3,2.87c-1.46,0.63-3.03,1-5.17,1.68
			c0.48-1.64,0.71-2.43,0.87-2.98c-2.19-0.62-4.23-1.2-6.26-1.78c2.46,0,4.92,0,7.68,0C365.68,449.2,365.68,447.19,365.68,445.18z"
			/>
		<path class="st3" d="M380.11,452.7c27.59-0.02,55.17-0.05,82.76-0.07c1.29,0,2.59-0.06,3.88-0.1c-0.54,0.37-1.07,1.06-1.61,1.07
			c-27.15,0.12-54.31,0.19-81.46,0.19C382.49,453.78,381.3,453.07,380.11,452.7z"/>
		<path class="st5" d="M507.39,491.09c-1.05,0.16-2.11,0.46-3.16,0.47c-8.06,0.04-16.13,0.07-24.19-0.02
			c-1.93-0.02-2.59,0.59-2.58,2.63c0.05,24.85,0.04,49.7,0.05,74.56c0,0.59,0.13,1.18,0.24,2.13c3.68,0,7.24,0.12,10.78-0.12
			c0.57-0.04,1.49-1.65,1.5-2.55c0.12-7.73,0.04-15.47,0.09-23.2c0.01-1.07,0.37-2.14,0.57-3.21c0.03,9.91,0.06,19.83,0.1,29.74
			c-2.96,0.19-5.92,0.42-8.89,0.55c-1.66,0.07-3.33-0.03-5-0.05c0-26.93,0-53.85,0-81.06c9.49,0,18.52,0,27.54,0
			C505.43,490.99,506.41,491.04,507.39,491.09z"/>
		<path class="st3" d="M467.33,84.93c-15.13-0.04-30.26-0.08-45.4-0.12c-10.75-0.03-21.5-0.07-32.25-0.1c0.8-0.38,1.6-1.08,2.4-1.08
			c24.25-0.06,48.5-0.06,72.75,0.01C465.66,83.64,466.5,84.48,467.33,84.93z"/>
		<path class="st5" d="M327.25,561.13c1.27,1.97,2.89,3.8,3.73,5.96c1.2,3.07,3,4.17,6.13,3.84c2.63-0.28,5.31-0.06,8.34-0.06
			c0-27.06,0-53.73,0-80.41c0.2,0.39,0.57,0.77,0.57,1.16c0.03,26.6,0.02,53.19,0.02,80.03c-4.52,0-8.95,0-13.7,0
			C330.74,568.34,328.99,564.73,327.25,561.13z"/>
		<path class="st3" d="M307.91,570.84c0-15.78,0-31.55,0-47.33c0.2-0.12,0.39-0.24,0.59-0.36c1.72,3.51,3.45,7.03,5.17,10.54
			c-0.77-0.75-1.54-1.52-2.32-2.25c-0.46-0.43-0.96-0.8-1.44-1.2c-0.29,0.6-0.84,1.2-0.84,1.8c-0.06,11.9-0.04,23.79-0.12,35.69
			C308.93,568.77,308.27,569.8,307.91,570.84z"/>
		<path class="st7" d="M504.45,490.94c-9.03,0-18.05,0-27.54,0c0,27.21,0,54.13,0,81.06c-0.19-0.72-0.54-1.43-0.54-2.15
			c-0.03-25.69-0.03-51.38-0.02-77.07c0-0.7,0.08-1.39,0.14-2.46c6.9,0,13.64-0.05,20.38,0.03
			C499.4,490.39,501.92,490.74,504.45,490.94z"/>
		<path class="st5" d="M376.04,570.88c3.58,0,7.16-0.16,10.73,0.05c2.48,0.15,2.96-0.87,2.95-3.2c-0.07-20.28-0.05-40.56-0.02-60.85
			c0-1.16,0.39-2.33,0.6-3.49c0,22.69,0,45.39,0,68.43c-4.69,0-9.23,0.01-13.77-0.04C376.37,571.78,376.21,571.19,376.04,570.88z"/>
		<path class="st5" d="M463.77,503.27c0.01-3.3-0.03-6.6,0.05-9.9c0.04-1.64-0.38-2.44-2.15-2.44c-14.33,0.05-28.66,0.06-42.99,0
			c-1.79-0.01-2.19,0.81-2.15,2.44c0.08,3.3,0.05,6.6,0.06,9.9c-0.31-0.38-0.88-0.76-0.89-1.15c-0.07-3.8-0.04-7.59-0.04-11.59
			c16.25,0,32.29,0,48.95,0C464.33,494.78,464.05,499.02,463.77,503.27z"/>
		<path class="st5" d="M406.98,503.27c0.01-3.3-0.03-6.6,0.06-9.9c0.04-1.63-0.36-2.44-2.15-2.44c-14.53,0.05-29.06,0.05-43.59-0.01
			c-1.79-0.01-2.18,0.81-2.14,2.44c0.08,3.3,0.05,6.6,0.06,9.9c-0.24-0.76-0.67-1.52-0.68-2.29c-0.08-3.4-0.03-6.8-0.03-10.43
			c16.28,0,32.52,0,49.35,0C407.56,494.78,407.27,499.03,406.98,503.27z"/>
		<path class="st5" d="M242.75,555.33c-2.72-2.21-3.03-5.43-3.04-8.59c-0.08-18.76-0.05-37.52-0.05-56.28
			c0.22,0.99,0.63,1.97,0.63,2.96c0.04,16.15,0.02,32.3,0.04,48.45c0,1.23,0.13,2.45,0.21,3.68c0.09,0.65,0.18,1.31,0.27,1.96
			C241.45,550.11,242.1,552.72,242.75,555.33z"/>
		<path class="st5" d="M163.67,499.25c-1.19,3.33-2.46,6.63-3.52,10c-0.45,1.43-0.57,3.02-0.57,4.53
			c-0.05,10.5-0.01,20.99-0.05,31.49c0,1.09-0.3,2.17-0.46,3.26c-0.06-0.39-0.11-0.78-0.17-1.17c-0.01-0.23-0.03-0.47-0.04-0.7
			c-0.01-0.38-0.03-0.77-0.04-1.15c0.01-10.96,0.03-21.93,0.04-32.89C159.06,507.62,160.15,502.96,163.67,499.25z"/>
		<path class="st5" d="M187.37,401.31c1.01,0.34,2.08,0.58,3.04,1.05c7.33,3.65,14.62,7.41,21.98,10.99
			c1.33,0.65,2.95,0.64,4.43,0.94c-0.16,0.6-0.31,1.19-0.47,1.79c-0.39-0.03-0.77-0.07-1.16-0.1c-0.4-0.21-0.8-0.41-1.2-0.62
			c-0.58-0.19-1.16-0.38-1.74-0.57c-0.22-0.17-0.45-0.35-0.67-0.52c-7.35-3.76-14.72-7.5-22.05-11.29
			C188.73,402.57,188.08,401.87,187.37,401.31z"/>
		<path class="st5" d="M108.59,546.65c-0.33-0.36-0.94-0.73-0.95-1.09c-0.05-10.61-0.12-21.23,0.04-31.84
			c0.03-1.81,1.11-3.6,1.71-5.39c-0.26,1.8-0.53,3.61-0.79,5.41c-0.15,1.1-0.42,2.19-0.42,3.29c-0.04,7.82-0.05,15.63-0.01,23.45
			c0.01,1.51,0.26,3.03,0.4,4.54C108.59,545.56,108.59,546.11,108.59,546.65z"/>
		<path class="st5" d="M316.11,446.45c0.83-0.21,1.69-0.68,2.47-0.57c5.58,0.74,11.15,1.58,16.71,2.46
			c0.45,0.07,0.81,0.69,1.22,1.06c-1,0.01-1.99,0.01-2.99,0.02c-0.61-0.15-1.22-0.3-1.82-0.45c-0.99-0.06-1.97-0.11-2.96-0.17
			c-0.69-0.18-1.37-0.37-2.06-0.55c-0.89-0.01-1.78-0.01-2.68-0.02c-0.22-0.17-0.45-0.35-0.67-0.52c-2.37-0.24-4.73-0.48-7.1-0.72
			C316.2,446.81,316.15,446.63,316.11,446.45z"/>
		<path class="st5" d="M146.97,377.72c1.85,0.93,3.72,1.83,5.56,2.79c1.14,0.6,2.24,1.28,3.88,2.23c0-6,0-11.68,0-17.36
			c0.26,0,0.51,0,0.77,0.01c0,3.47,0,6.93,0,10.4c-0.06,2.88-0.11,5.75-0.17,8.63C153.67,382.18,150.32,379.95,146.97,377.72z"/>
		<path class="st5" d="M94.54,512.06c0.16,0.78,0.46,1.56,0.46,2.34c0.03,10.82,0.03,21.63,0,32.45c0,0.78-0.31,1.55-0.48,2.33
			c-0.07-0.19-0.11-0.39-0.12-0.6c-0.01-11.37-0.02-22.74-0.03-34.12C94.42,513.66,94.48,512.86,94.54,512.06z"/>
		<path class="st5" d="M314.98,504.6c-1.75-3.06-3.84-5.98-5.16-9.23c-1.26-3.11-3.03-4.15-6.13-3.89c-1.36,0.12-2.8-0.64-4.2-1
			c1.16,0,2.32,0,3.48,0c1.22,0,2.44,0,3.66,0.01c0.76,0.42,1.9,0.63,2.23,1.28C311,495.99,312.96,500.31,314.98,504.6z"/>
		<path class="st3" d="M386.08,84.7c-5.18,0-10.36-0.01-15.53-0.01c0.71-0.37,1.4-1.01,2.13-1.05c4.05-0.26,8.11-0.42,12.17-0.47
			C385.25,83.16,385.67,84.16,386.08,84.7z"/>
		<path class="st8" d="M94.36,514.46c0.01,11.37,0.02,22.74,0.03,34.12C94.38,537.21,94.37,525.83,94.36,514.46z"/>
		<path class="st6" d="M158.86,512.61c-0.01,10.96-0.03,21.93-0.04,32.89c-0.14-0.47-0.41-0.95-0.42-1.42
			c-0.03-9.92-0.03-19.84-0.01-29.75C158.4,513.76,158.7,513.19,158.86,512.61z"/>
		<path class="st8" d="M108.58,545.01c-0.14-1.51-0.39-3.02-0.4-4.54c-0.04-7.82-0.03-15.63,0.01-23.45
			c0.01-1.1,0.28-2.19,0.42-3.29C108.6,524.16,108.59,534.59,108.58,545.01z"/>
		<path class="st9" d="M490.79,571.51c-0.03-9.91-0.06-19.83-0.1-29.74c0,0-0.01,0-0.01,0c0.22,0.01,0.44,0.02,0.66,0.03
			c-0.03,8.94-0.04,17.88-0.1,26.82C491.24,569.58,490.95,570.54,490.79,571.51z"/>
		<path class="st5" d="M130.74,555.1c-0.8,1.08-1.42,2.43-2.44,3.19c-3.98,2.93-10.34,2.89-14.15,0.11
			C120.32,560.74,125.93,560.07,130.74,555.1z"/>
		<path class="st5" d="M270.48,565.74c0.38-0.77,0.78-1.53,1.15-2.3c1.67-3.5,3.33-7.01,4.99-10.51c0.84,5.08-2.27,8.53-4.71,12.25
			C271.43,565.37,270.95,565.56,270.48,565.74z"/>
		<path class="st5" d="M234.6,566.78c3.69,1.73,7.37,3.47,11.06,5.2c-0.78-0.15-1.56-0.31-2.33-0.46c-1.01-0.25-2.02-0.49-3.04-0.74
			c0,0,0.03,0.03,0.03,0.03c-0.22-0.17-0.44-0.33-0.66-0.5c-0.17-0.08-0.34-0.12-0.53-0.11c-0.22-0.17-0.45-0.34-0.67-0.5
			c-0.44-0.19-0.88-0.38-1.32-0.57c-0.36-0.23-0.72-0.46-1.08-0.69C235.58,567.89,235.09,567.33,234.6,566.78z"/>
		<path class="st5" d="M132.73,492.2c-6-0.63-11.99-1.25-17.99-1.88C120.9,489.23,126.97,489.13,132.73,492.2z"/>
		<path class="st3" d="M270.48,565.74c0.47-0.19,0.95-0.37,1.42-0.56c-0.74,3.2-4.49,5.59-7.77,4.97c1.8-1.22,3.59-2.44,5.39-3.67
			c0.3-0.25,0.6-0.49,0.9-0.74L270.48,565.74z"/>
		<path class="st5" d="M491.35,541.8c-0.22-0.01-0.44-0.02-0.66-0.03c0.72-0.21,1.44-0.56,2.17-0.6c4.5-0.25,9-0.46,13.5-0.6
			c0.93-0.03,1.88,0.29,2.82,0.45C503.24,541.28,497.29,541.54,491.35,541.8z"/>
		<path class="st5" d="M191.89,490.33c-4.6-0.01-9.19-0.03-13.79-0.04C182.71,488.65,187.3,489.36,191.89,490.33z"/>
		<path class="st3" d="M365.87,430.92c0-1.03,0-2.06,0-3.09c0.56,0.52,1.12,1.03,1.68,1.55
			C366.99,429.89,366.43,430.41,365.87,430.92z"/>
		<path class="st3" d="M326.68,448.25c0.69,0.18,1.37,0.37,2.06,0.55c-0.47,0.81-0.93,1.62-1.4,2.43c-0.27-0.06-0.53-0.11-0.8-0.17
			C326.59,450.12,326.64,449.18,326.68,448.25z"/>
		<path class="st3" d="M372.78,275.01c0.79,0.47,1.57,0.95,2.36,1.42c-0.11,0.26-0.22,0.52-0.32,0.79
			c-0.84-0.32-1.68-0.64-2.52-0.97C372.46,275.83,372.62,275.42,372.78,275.01z"/>
		<path class="st5" d="M317.41,509.53c-0.81-1.65-1.62-3.3-2.44-4.95C315.79,506.22,316.6,507.88,317.41,509.53z"/>
		<path class="st3" d="M369.22,289.34c0.09,0.64,0.19,1.28,0.28,1.93c-0.33,0.05-0.66,0.1-0.99,0.14c-0.07-0.64-0.14-1.29-0.21-1.93
			C368.6,289.43,368.91,289.39,369.22,289.34z"/>
		<path class="st3" d="M336.45,449.61c0.81,0.15,1.62,0.3,2.44,0.45C337.92,450.84,336.78,452.56,336.45,449.61z"/>
		<path class="st3" d="M240.3,570.78c1.01,0.25,2.02,0.49,3.04,0.74C241.92,573.05,240.97,572.53,240.3,570.78z"/>
		<path class="st3" d="M367.6,393.48c0.7,1.26,1.08,1.72,1,1.85c-0.22,0.33-0.64,0.51-0.98,0.75c-0.17-0.31-0.45-0.62-0.47-0.94
			C367.12,394.77,367.34,394.38,367.6,393.48z"/>
		<path class="st5" d="M231.6,563.71c0.79,0.82,1.58,1.65,2.37,2.47C233.18,565.36,232.39,564.54,231.6,563.71z"/>
		<path class="st5" d="M200.28,493.43c-1.21-0.63-2.43-1.26-3.64-1.89C197.85,492.17,199.07,492.8,200.28,493.43z"/>
		<path class="st5" d="M196.68,491.58c-1.61-0.43-3.21-0.85-4.82-1.28C193.47,490.72,195.07,491.15,196.68,491.58z"/>
		<path class="st3" d="M331.7,448.97c0.61,0.15,1.22,0.3,1.82,0.45c-0.41,0.36-0.83,0.72-1.24,1.08
			C332.09,449.99,331.89,449.48,331.7,448.97z"/>
		<path class="st3" d="M284.52,440.12c0.8,0.21,1.59,0.41,2.39,0.62C285.83,441.7,284.91,442.01,284.52,440.12z"/>
		<path class="st5" d="M114.16,503.41c1.18-0.26,2.35-0.52,3.53-0.79C116.51,502.89,115.34,503.15,114.16,503.41z"/>
		<path class="st5" d="M325.91,559.13c0.19-0.23,0.37-0.45,0.56-0.68c0.26,0.92,0.52,1.84,0.78,2.76
			C326.8,560.52,326.35,559.82,325.91,559.13z"/>
		<path class="st3" d="M245.61,572.2c0.61,0.21,1.21,0.42,1.82,0.63c-0.3,0.34-0.6,0.68-0.89,1.02
			C246.22,573.3,245.92,572.75,245.61,572.2z"/>
		<path class="st5" d="M140.11,497.61c-0.88-0.79-1.76-1.58-2.65-2.37C138.35,496.03,139.23,496.82,140.11,497.61z"/>
		<path class="st5" d="M203.86,495.9c-0.81-0.63-1.63-1.26-2.44-1.89C202.23,494.64,203.05,495.27,203.86,495.9z"/>
		<path class="st3" d="M466.85,308.95c0-0.62,0-1.24,0-1.85c0.34,0.36,0.68,0.71,1.02,1.07
			C467.53,308.43,467.19,308.69,466.85,308.95z"/>
		<path class="st5" d="M131.48,552.9c-0.28,0.79-0.55,1.58-0.83,2.36C130.92,554.47,131.2,553.69,131.48,552.9z"/>
		<path class="st5" d="M325.2,525.64c-0.39-0.87-0.78-1.73-1.17-2.6C324.42,523.9,324.81,524.77,325.2,525.64z"/>
		<path class="st3" d="M467.38,87.92c0.01-0.62,0.02-1.24,0.03-1.85c0.35,0.27,0.7,0.53,1.04,0.8
			C468.1,87.21,467.74,87.56,467.38,87.92z"/>
		<path class="st2" d="M306.63,490.49c-1.22,0-2.44,0-3.66-0.01C304.19,490.49,305.41,490.49,306.63,490.49z"/>
		<path class="st3" d="M368.09,298.89c0.13,0.26,0.41,0.61,0.34,0.71c-0.16,0.24-0.47,0.43-0.75,0.51
			c-0.08,0.02-0.28-0.36-0.43-0.56C367.44,299.4,367.64,299.24,368.09,298.89z"/>
		<path class="st3" d="M466.85,433.4c0-0.62,0-1.24,0-1.85c0.34,0.36,0.68,0.71,1.02,1.07C467.53,432.87,467.19,433.13,466.85,433.4
			z"/>
		<path class="st3" d="M466.85,344.24c0-0.62,0-1.24,0-1.85c0.34,0.36,0.68,0.71,1.02,1.07
			C467.53,343.72,467.19,343.98,466.85,344.24z"/>
		<path class="st3" d="M255.71,572.51c0.62-0.1,1.25-0.21,1.87-0.31C256.96,572.3,256.34,572.4,255.71,572.51z"/>
		<path class="st3" d="M343.06,450.21c0.6,0.16,1.21,0.32,1.81,0.47C344.26,450.52,343.66,450.37,343.06,450.21z"/>
		<path class="st3" d="M365.87,425.35c0-0.41,0-0.82,0-1.24c0.49,0.13,0.98,0.26,1.47,0.38c0,0.16,0,0.31,0,0.47
			C366.85,425.09,366.36,425.22,365.87,425.35z"/>
		<path class="st5" d="M319.22,513.25c-0.41-0.83-0.82-1.67-1.23-2.5C318.4,511.58,318.81,512.42,319.22,513.25z"/>
		<path class="st5" d="M321.03,516.95c-0.42-0.83-0.83-1.67-1.25-2.5C320.2,515.28,320.61,516.11,321.03,516.95z"/>
		<path class="st5" d="M322.25,519.41c-0.42-0.84-0.84-1.68-1.27-2.52C321.41,517.74,321.83,518.58,322.25,519.41z"/>
		<path class="st5" d="M328.39,531.69c-0.48-0.8-0.96-1.6-1.44-2.4C327.43,530.1,327.91,530.9,328.39,531.69z"/>
		<path class="st3" d="M367.97,419.27c-0.24-0.29-0.4-0.48-0.55-0.66c0.22-0.16,0.44-0.36,0.68-0.45c0.09-0.03,0.4,0.27,0.38,0.31
			C368.38,418.72,368.2,418.93,367.97,419.27z"/>
		<path class="st3" d="M289.27,440.88c0.41,0,0.81,0,1.22,0c-0.25,0.31-0.5,0.61-0.75,0.92
			C289.58,441.49,289.42,441.19,289.27,440.88z"/>
		<path class="st5" d="M114.21,558.44c-0.61-0.43-1.23-0.86-1.84-1.28C112.98,557.59,113.6,558.01,114.21,558.44z"/>
		<path class="st5" d="M136.92,494.67c-0.62-0.42-1.23-0.84-1.85-1.26C135.69,493.83,136.31,494.25,136.92,494.67z"/>
		<path class="st3" d="M466.85,304c0-0.41,0-0.82,0-1.23c0.29,0.21,0.58,0.41,0.87,0.62C467.43,303.59,467.14,303.79,466.85,304z"/>
		<path class="st3" d="M232.49,422.97c0.41,0.15,0.81,0.3,1.22,0.45C233.3,423.27,232.9,423.12,232.49,422.97z"/>
		<path class="st3" d="M213.99,415.36c0.4,0.21,0.8,0.41,1.2,0.62C214.79,415.77,214.39,415.57,213.99,415.36z"/>
		<path class="st5" d="M111.32,505.48c0.57-0.49,1.13-0.98,1.7-1.48C112.45,504.5,111.88,504.99,111.32,505.48z"/>
		<path class="st3" d="M379.47,451.35c0.05,0.4,0.1,0.8,0.15,1.2c-0.35-0.22-0.7-0.43-1.05-0.65
			C378.88,451.72,379.18,451.54,379.47,451.35z"/>
		<path class="st3" d="M372.78,294.95c0.16,0.07,0.42,0.11,0.46,0.23c0.05,0.12-0.12,0.33-0.19,0.49c-0.16-0.07-0.42-0.11-0.46-0.23
			C372.54,295.33,372.71,295.12,372.78,294.95z"/>
		<path class="st3" d="M365.86,373.96c0-0.41,0-0.82,0-1.24c0.28,0.21,0.57,0.41,0.85,0.62
			C366.43,373.55,366.15,373.75,365.86,373.96z"/>
		<path class="st5" d="M329.12,533c-0.26-0.46-0.52-0.91-0.78-1.37C328.61,532.08,328.87,532.54,329.12,533z"/>
		<path class="st3" d="M240.8,547.51c-0.09-0.65-0.18-1.31-0.27-1.96C240.62,546.2,240.71,546.85,240.8,547.51z"/>
		<path class="st5" d="M207.06,499.5c-0.28-0.38-0.57-0.76-0.85-1.14C206.5,498.74,206.78,499.12,207.06,499.5z"/>
		<path class="st5" d="M112.42,557.2c-0.2-0.2-0.4-0.41-0.61-0.61C112.02,556.79,112.22,557,112.42,557.2z"/>
		<path class="st5" d="M135.12,493.44c-0.41-0.22-0.83-0.45-1.24-0.67C134.29,492.99,134.71,493.21,135.12,493.44z"/>
		<path class="st5" d="M133.94,492.81c-0.42-0.21-0.84-0.43-1.25-0.64C133.1,492.38,133.52,492.6,133.94,492.81z"/>
		<path class="st5" d="M112.96,504.05c0.41-0.22,0.82-0.44,1.23-0.67C113.79,503.6,113.38,503.83,112.96,504.05z"/>
		<path class="st3" d="M236.07,568.44c0.36,0.23,0.72,0.46,1.08,0.69C236.8,568.9,236.44,568.67,236.07,568.44z"/>
		<path class="st5" d="M322.86,520.66c-0.22-0.44-0.44-0.87-0.66-1.31C322.42,519.79,322.64,520.22,322.86,520.66z"/>
		<path class="st5" d="M109.99,507.13c0.29-0.37,0.58-0.74,0.86-1.11C110.57,506.39,110.28,506.76,109.99,507.13z"/>
		<path class="st5" d="M109.38,508.35c0.22-0.42,0.43-0.85,0.65-1.27C109.82,507.5,109.6,507.93,109.38,508.35z"/>
		<path class="st5" d="M317.99,510.76c-0.2-0.42-0.4-0.85-0.61-1.27C317.59,509.92,317.79,510.34,317.99,510.76z"/>
		<path class="st5" d="M201.47,494.05c-0.42-0.22-0.83-0.45-1.25-0.67C200.63,493.6,201.05,493.83,201.47,494.05z"/>
		<path class="st5" d="M323.47,521.88c-0.23-0.43-0.45-0.86-0.68-1.29C323.02,521.02,323.25,521.45,323.47,521.88z"/>
		<path class="st5" d="M324.1,523.11c-0.23-0.43-0.46-0.86-0.68-1.3C323.64,522.24,323.87,522.68,324.1,523.11z"/>
		<path class="st5" d="M319.81,514.48c-0.21-0.43-0.42-0.85-0.63-1.28C319.39,513.63,319.6,514.05,319.81,514.48z"/>
		<path class="st5" d="M325.8,526.88c-0.22-0.43-0.43-0.86-0.65-1.3C325.37,526.01,325.58,526.45,325.8,526.88z"/>
		<path class="st5" d="M326.39,528.12c-0.21-0.43-0.42-0.87-0.64-1.3C325.97,527.25,326.18,527.69,326.39,528.12z"/>
		<path class="st5" d="M326.99,529.36c-0.22-0.43-0.43-0.86-0.65-1.29C326.56,528.49,326.78,528.93,326.99,529.36z"/>
		<path class="st5" d="M207.45,500.26c-0.18-0.27-0.35-0.55-0.53-0.82C207.1,499.71,207.28,499.98,207.45,500.26z"/>
		<path class="st5" d="M207.99,500.88c-0.2-0.23-0.4-0.46-0.59-0.68C207.59,500.42,207.79,500.65,207.99,500.88z"/>
		<path class="st5" d="M137.53,495.3c-0.22-0.23-0.43-0.45-0.65-0.68C137.09,494.85,137.31,495.08,137.53,495.3z"/>
		<path class="st3" d="M316.11,446.45c0.05,0.18,0.09,0.36,0.14,0.54c-0.22-0.16-0.44-0.32-0.66-0.48
			C315.75,446.42,315.93,446.4,316.11,446.45z"/>
		<path class="st6" d="M158.86,546.66c0.01,0.23,0.03,0.47,0.04,0.7c-0.08-0.16-0.17-0.32-0.22-0.49
			C158.67,546.82,158.8,546.73,158.86,546.66z"/>
		<path class="st3" d="M323.34,447.71c0.22,0.17,0.45,0.35,0.67,0.52C323.79,448.06,323.56,447.88,323.34,447.71z"/>
		<path class="st5" d="M205.06,497.16c-0.22-0.23-0.44-0.45-0.66-0.68C204.62,496.71,204.84,496.93,205.06,497.16z"/>
		<path class="st5" d="M110.74,506.1c0.22-0.25,0.44-0.5,0.66-0.74C111.18,505.6,110.96,505.85,110.74,506.1z"/>
		<path class="st3" d="M211.58,414.28c0.22,0.17,0.45,0.35,0.67,0.52C212.02,414.62,211.8,414.45,211.58,414.28z"/>
		<path class="st5" d="M231.31,563.36c0.13-0.04,0.27-0.08,0.4-0.11c-0.08,0.14-0.15,0.27-0.23,0.41
			C231.34,563.6,231.28,563.51,231.31,563.36z"/>
		<path class="st5" d="M141.14,499.01c-0.2-0.27-0.4-0.54-0.59-0.8C140.74,498.48,140.94,498.75,141.14,499.01z"/>
		<path class="st3" d="M308.41,445.27c0.21,0.16,0.42,0.32,0.63,0.49C308.82,445.59,308.61,445.43,308.41,445.27z"/>
		<path class="st3" d="M311.39,445.89c0.21,0.16,0.42,0.32,0.64,0.48C311.82,446.22,311.61,446.05,311.39,445.89z"/>
		<path class="st5" d="M234.03,566.13c0.23,0.21,0.47,0.43,0.7,0.65C234.5,566.56,234.27,566.34,234.03,566.13z"/>
		<path class="st5" d="M204.47,496.54c-0.22-0.23-0.43-0.45-0.65-0.68C204.03,496.09,204.25,496.32,204.47,496.54z"/>
		<path class="st3" d="M238.47,569.7c0.22,0.17,0.45,0.34,0.67,0.5C238.92,570.03,238.7,569.86,238.47,569.7z"/>
		<path class="st3" d="M239.67,570.31c0.22,0.17,0.44,0.33,0.66,0.5C240.11,570.64,239.89,570.48,239.67,570.31z"/>
		<path class="st5" d="M205.66,497.78c-0.22-0.23-0.44-0.45-0.66-0.68C205.22,497.33,205.44,497.55,205.66,497.78z"/>
		<path class="st3" d="M306.55,572.06c0.21-0.16,0.42-0.32,0.62-0.47C306.97,571.75,306.76,571.91,306.55,572.06z"/>
		<path class="st5" d="M140.67,498.29c-0.23-0.25-0.46-0.5-0.68-0.75C140.22,497.79,140.45,498.04,140.67,498.29z"/>
		<path class="st5" d="M206.24,498.39c-0.21-0.22-0.43-0.45-0.64-0.67C205.82,497.94,206.03,498.17,206.24,498.39z"/>
		<path class="st3" d="M231.3,422.34c0.22,0.17,0.44,0.34,0.67,0.51C231.75,422.68,231.52,422.51,231.3,422.34z"/>
		<path class="st4" d="M381.93,119.58c27.9-0.08,55.8-0.17,83.71-0.22c0.55,0,1.09,0.48,1.64,0.74c-27.5,0-55.01,0.01-82.51-0.02
			C383.82,120.08,382.87,119.75,381.93,119.58z"/>
		<path class="st0" d="M379.49,267.47c-4.94-0.84-5.24-1.5-2.78-6.17c1.12-2.13,0.13-3.4-2.3-4.39c2.03-0.97,3.55-1.71,5.08-2.44
			C379.48,258.8,379.48,263.13,379.49,267.47z"/>
		<path class="st0" d="M379.49,252.61c-2.34,0.14-3.25-0.39-2.19-3.16c0.7-1.84,0.18-4.13,0.5-6.18c0.1-0.68,1.1-1.2,1.68-1.8
			C379.48,245.18,379.49,248.89,379.49,252.61z"/>
		<path class="st0" d="M379.48,240.23c-2.27,0.1-1.7-1.64-1.75-2.94c-0.05-1.29-0.26-2.77,1.75-2.64
			C379.48,236.51,379.48,238.37,379.48,240.23z"/>
		<path class="st0" d="M379.48,269.95c-0.51-0.13-1.02-0.25-1.53-0.38c0-0.16,0-0.32,0-0.48c0.51-0.13,1.02-0.25,1.53-0.38
			C379.49,269.12,379.49,269.53,379.48,269.95z"/>
		<path class="st2" d="M288.79,167.59c0.36,1.28,1.03,2.57,1.03,3.85c0.05,56.85,0.04,113.7,0.04,170.56c0,31.26,0,62.53,0,93.79
			c0,1.12,0,2.24,0,3.97c-2.92-0.57-5.5-0.94-8.02-1.58c-16.49-4.23-32.59-9.72-48.43-16.04c-2.25-0.89-2.17-2.56-2.17-4.47
			c0.02-45.4,0.02-90.8,0.02-136.2c0-24.66,0-49.32,0-73.98c0-1.01,0-2.03,0-3.04c-0.18,0-0.35,0-0.53-0.01c0,1.05,0,2.09,0,3.14
			c0,69.85,0,139.71-0.02,209.56c0,1.29-0.32,2.59-0.48,3.88c-0.03-17.01-0.08-34.03-0.08-51.04
			c-0.02-55.18-0.02-110.35-0.04-165.53c0-1.54-0.12-2.84,1.61-3.83c18.43-10.65,36.8-21.42,55.19-32.15
			C287.5,168.12,288.16,167.88,288.79,167.59z"/>
		<path class="st5" d="M133.36,222.19c-0.23,1.26-0.65,2.52-0.65,3.79c-0.03,46.18-0.03,92.37-0.05,138.55
			c0,1.29-0.31,2.59-0.48,3.88c-0.04-0.72-0.13-1.43-0.13-2.15c0-47.71,0-95.42,0-143.13c0-0.6,0-1.21,0-2.39
			C132.7,221.46,133.03,221.83,133.36,222.19z"/>
		<path class="st5" d="M157.68,338.65c-0.16-1.19-0.46-2.39-0.46-3.58c-0.03-32.19-0.04-64.38,0.02-96.56
			c0-2.06-0.23-3.81-1.83-5.16c1.52,0.37,2.62,0.87,2.61,2.97C157.86,270.43,157.78,304.54,157.68,338.65z"/>
		<path class="st0" d="M291.12,193.79c0.1-1.67,0.21-3.34,0.31-5.01c0.47,1.05,1.21,2.08,1.31,3.17
			C292.79,192.51,291.7,193.17,291.12,193.79z"/>
		<path class="st0" d="M291.43,201.28c-0.1-1.05-0.21-2.11-0.31-3.16c0.57,0.46,1.14,0.93,1.71,1.39
			C292.36,200.1,291.9,200.69,291.43,201.28z"/>
		<path class="st5" d="M204.33,216.26c-1.44,0.85-2.88,1.71-4.32,2.56C201.45,217.96,202.89,217.11,204.33,216.26z"/>
		<path class="st0" d="M291.53,208.03c0-1.23,0-2.47,0-3.7C293.65,205.56,293.65,206.79,291.53,208.03z"/>
		<path class="st5" d="M188.21,225.88c-1.4,0.85-2.81,1.7-4.21,2.55C185.41,227.57,186.81,226.72,188.21,225.88z"/>
		<path class="st5" d="M192.41,223.39c-1.42,0.85-2.83,1.69-4.25,2.54C189.58,225.08,191,224.23,192.41,223.39z"/>
		<path class="st5" d="M177.29,232.49c-1.15,0.71-2.29,1.42-3.44,2.13C175,233.91,176.15,233.2,177.29,232.49z"/>
		<path class="st0" d="M365.87,243.03c0-0.43,0-0.86,0-1.28c0.72,0.04,1.44,0.08,2.16,0.12c-0.01,0.39-0.02,0.78-0.03,1.17
			C367.3,243.03,366.58,243.03,365.87,243.03z"/>
		<path class="st5" d="M181.06,230.21c-1.02,0.63-2.04,1.27-3.06,1.9C179.02,231.48,180.04,230.84,181.06,230.21z"/>
		<path class="st0" d="M365.87,238.03c-0.04-0.19-0.04-0.38,0-0.57c0.62-0.05,1.24-0.09,1.86-0.14c0.02,0.24,0.04,0.47,0.05,0.71
			C367.15,238.03,366.51,238.03,365.87,238.03z"/>
		<path class="st5" d="M198.87,219.5c-0.79,0.48-1.57,0.97-2.36,1.45C197.3,220.47,198.08,219.99,198.87,219.5z"/>
		<path class="st5" d="M194.73,222.02c-0.8,0.48-1.59,0.96-2.39,1.44C193.14,222.98,193.94,222.5,194.73,222.02z"/>
		<path class="st5" d="M196.58,220.89c-0.65,0.4-1.29,0.79-1.94,1.19C195.29,221.68,195.93,221.29,196.58,220.89z"/>
		<path class="st5" d="M184.05,228.38c-0.64,0.4-1.29,0.79-1.93,1.19C182.76,229.18,183.41,228.78,184.05,228.38z"/>
		<path class="st5" d="M153.1,232.11c-0.55-0.3-1.1-0.6-1.65-0.91C152,231.5,152.55,231.8,153.1,232.11z"/>
		<path class="st5" d="M182.22,229.49c-0.41,0.26-0.82,0.52-1.23,0.78C181.4,230.01,181.81,229.75,182.22,229.49z"/>
		<path class="st5" d="M199.94,218.82c-0.37,0.25-0.75,0.5-1.12,0.75C199.19,219.32,199.56,219.07,199.94,218.82z"/>
		<path class="st0" d="M291.54,265.03c0-0.44,0-0.87,0-1.31C291.54,264.15,291.54,264.59,291.54,265.03z"/>
		<path class="st5" d="M155.46,233.38c-0.41-0.23-0.83-0.46-1.24-0.69C154.63,232.92,155.05,233.15,155.46,233.38z"/>
		<path class="st5" d="M154.29,232.75c-0.42-0.23-0.83-0.46-1.25-0.69C153.45,232.29,153.87,232.52,154.29,232.75z"/>
		<path class="st5" d="M151.42,231.32c-0.25-0.18-0.51-0.36-0.76-0.54C150.91,230.96,151.17,231.14,151.42,231.32z"/>
		<path class="st5" d="M150.75,230.88c-0.23-0.15-0.45-0.31-0.68-0.46C150.3,230.57,150.53,230.73,150.75,230.88z"/>
		<path class="st5" d="M178.06,232.06c-0.26,0.18-0.52,0.36-0.77,0.54C177.54,232.42,177.8,232.24,178.06,232.06z"/>
		<path class="st0" d="M173.19,530.6c0-5.26,0.07-10.52-0.01-15.77c-0.15-9.87,7.46-13.57,15.45-11.66
			c5.71,1.36,8.55,5.13,8.58,11.21c0.05,10.52,0.09,21.04-0.01,31.55c-0.1,9.93-7.41,15.39-16.57,12.53
			c-4.3-1.35-7.11-5.21-7.25-10.53c-0.15-5.77-0.03-11.54-0.03-17.32C173.28,530.6,173.23,530.6,173.19,530.6z"/>
		<path class="st5" d="M270.42,565.75c-0.3,0.25-0.6,0.49-0.9,0.74c-0.02-0.24-0.04-0.47-0.06-0.71
			C269.78,565.77,270.1,565.76,270.42,565.75z"/>
		<path class="st0" d="M509.63,525.56c-2.04,0.96-4.01,2.53-6.12,2.76c-3.99,0.45-8.07,0.13-12.27,0.13c0-8.24,0-16.31,0-24.61
			c4.61,0,9.22,0,13.82,0c0.57,0.11,1.14,0.21,1.71,0.32c0,0-0.09-0.09-0.09-0.09c0.43,0.22,0.86,0.44,1.29,0.66
			c0,0-0.07-0.06-0.07-0.06c1.02,2.42,2.72,4.79,2.92,7.28c0.32,4.09-0.34,8.27-0.59,12.41c0,0,0.07-0.1,0.07-0.1
			C510.08,524.7,509.85,525.13,509.63,525.56z"/>
		<path class="st5" d="M510.23,524.37c0.25-4.14,0.9-8.32,0.59-12.41c-0.19-2.49-1.89-4.86-2.92-7.28c2.65,0.23,3.19,2.59,3.34,4.46
			c0.37,4.4,0.27,8.84,0.21,13.26C511.44,523.06,510.65,523.71,510.23,524.37z"/>
		<path class="st5" d="M490.23,527.31c0-7.55,0-15.1,0-22.65c0.08,0,0.17,0,0.25,0c0,7.57,0,15.14,0,22.71
			C490.4,527.35,490.32,527.33,490.23,527.31z"/>
		<path class="st5" d="M491.52,502.83c4.03,0,8.05,0,12.08,0c0,0.09,0,0.17,0.01,0.26c-4.07,0-8.14,0-12.21,0
			C491.43,503.01,491.47,502.92,491.52,502.83z"/>
		<path class="st5" d="M506.76,504.17c-0.57-0.11-1.14-0.21-1.71-0.32C505.62,503.95,506.19,504.06,506.76,504.17z"/>
		<path class="st5" d="M507.96,504.74c-0.43-0.22-0.86-0.44-1.29-0.66C507.1,504.3,507.53,504.52,507.96,504.74z"/>
		<path class="st5" d="M509.63,525.56c0.22-0.43,0.45-0.86,0.67-1.3C510.07,524.7,509.85,525.13,509.63,525.56z"/>
	</g>
</g>
</svg>
